<svg width="101" height="56" viewBox="0 0 101 56" fill="none" xmlns="http://www.w3.org/2000/svg">
<path d="M20.68 54.72C17.224 54.72 14.032 53.952 11.104 52.416C8.176 50.88 5.824 48.672 4.048 45.792C2.32 42.912 1.456 39.528 1.456 35.64C1.456 31.752 2.32 28.368 4.048 25.488C5.824 22.608 8.176 20.4 11.104 18.864C14.032 17.328 17.224 16.56 20.68 16.56C23.224 16.56 25.408 16.896 27.232 17.568C29.104 18.192 30.832 19.008 32.416 20.016C33.376 20.64 33.856 21.48 33.856 22.536C33.856 23.256 33.568 23.928 32.992 24.552C32.464 25.128 31.84 25.416 31.12 25.416C30.592 25.416 30.064 25.272 29.536 24.984C27.952 24.168 26.584 23.592 25.432 23.256C24.328 22.872 22.936 22.68 21.256 22.68C17.128 22.68 13.888 23.88 11.536 26.28C9.184 28.632 8.008 31.752 8.008 35.64C8.008 39.528 9.184 42.672 11.536 45.072C13.888 47.424 17.128 48.6 21.256 48.6C22.936 48.6 24.328 48.432 25.432 48.096C26.584 47.712 27.952 47.112 29.536 46.296C30.064 46.008 30.592 45.864 31.12 45.864C31.84 45.864 32.464 46.176 32.992 46.8C33.568 47.376 33.856 48.024 33.856 48.744C33.856 49.8 33.376 50.64 32.416 51.264C30.832 52.272 29.104 53.112 27.232 53.784C25.408 54.408 23.224 54.72 20.68 54.72ZM45.3186 54.36C44.4066 54.36 43.6386 54.048 43.0146 53.424C42.3906 52.8 42.0786 52.032 42.0786 51.12V4.392C42.0786 3.48 42.3906 2.712 43.0146 2.088C43.6386 1.416 44.4066 1.08 45.3186 1.08C46.2306 1.08 46.9986 1.416 47.6226 2.088C48.2946 2.712 48.6306 3.48 48.6306 4.392V23.184C50.4546 21.168 52.4226 19.56 54.5346 18.36C56.6466 17.16 59.1426 16.56 62.0226 16.56C64.6626 16.56 66.9426 17.184 68.8626 18.432C70.8306 19.68 72.3186 21.384 73.3266 23.544C74.3826 25.704 74.9106 28.08 74.9106 30.672V51.12C74.9106 52.032 74.5746 52.8 73.9026 53.424C73.2786 54.048 72.5106 54.36 71.5986 54.36C70.6866 54.36 69.9186 54.048 69.2946 53.424C68.6706 52.8 68.3586 52.032 68.3586 51.12V31.392C68.3586 25.536 65.7186 22.608 60.4386 22.608C58.0386 22.608 55.8786 23.232 53.9586 24.48C52.0866 25.728 50.3106 27.408 48.6306 29.52V51.12C48.6306 52.032 48.2946 52.8 47.6226 53.424C46.9986 54.048 46.2306 54.36 45.3186 54.36ZM89.1936 54.36C88.2816 54.36 87.5136 54.048 86.8896 53.424C86.2656 52.8 85.9536 52.032 85.9536 51.12V20.232C85.9536 19.32 86.2656 18.552 86.8896 17.928C87.5136 17.256 88.2816 16.92 89.1936 16.92C90.1536 16.92 90.9456 17.232 91.5696 17.856C92.1936 18.48 92.5056 19.272 92.5056 20.232V51.12C92.5056 52.032 92.1696 52.8 91.4976 53.424C90.8736 54.048 90.1056 54.36 89.1936 54.36ZM80.8416 11.664C80.2176 11.664 79.7136 11.472 79.3296 11.088C78.8976 10.656 78.6816 10.128 78.6816 9.504C78.6816 8.88 78.8976 8.376 79.3296 7.992C79.7136 7.56 80.2176 7.344 80.8416 7.344H97.6896C98.3136 7.344 98.8176 7.56 99.2016 7.992C99.6336 8.376 99.8496 8.88 99.8496 9.504C99.8496 10.128 99.6336 10.656 99.2016 11.088C98.8176 11.472 98.3136 11.664 97.6896 11.664H80.8416Z" fill="#56C461"/>
<path d="M11.104 52.416L11.5686 51.5305L11.104 52.416ZM4.048 45.792L3.19044 46.3065L3.19683 46.3169L4.048 45.792ZM4.048 25.488L3.19677 24.9631L3.19051 24.9735L4.048 25.488ZM27.232 17.568L26.8863 18.5063L26.901 18.5117L26.9158 18.5167L27.232 17.568ZM32.416 20.016L32.961 19.1775L32.9529 19.1723L32.416 20.016ZM32.992 24.552L32.2572 23.8737L32.2548 23.8763L32.992 24.552ZM29.536 24.984L30.0149 24.1061L30.0045 24.1004L29.994 24.095L29.536 24.984ZM25.432 23.256L25.1035 24.2005L25.1275 24.2089L25.152 24.216L25.432 23.256ZM11.536 26.28L12.2431 26.9871L12.2502 26.9799L11.536 26.28ZM11.536 45.072L10.8218 45.772L10.8289 45.7791L11.536 45.072ZM25.432 48.096L25.7232 49.0527L25.7357 49.0488L25.7482 49.0447L25.432 48.096ZM29.536 46.296L29.994 47.185L30.0045 47.1796L30.0149 47.1739L29.536 46.296ZM32.992 46.8L32.2286 47.4459L32.2555 47.4777L32.2849 47.5071L32.992 46.8ZM32.416 51.264L32.9529 52.1077L32.961 52.1024L32.416 51.264ZM27.232 53.784L27.5557 54.7302L27.5628 54.7277L27.5699 54.7252L27.232 53.784ZM20.68 53.72C17.3783 53.72 14.3467 52.9878 11.5686 51.5305L10.6395 53.3015C13.7173 54.9162 17.0697 55.72 20.68 55.72V53.72ZM11.5686 51.5305C8.80329 50.0798 6.5833 47.9981 4.89917 45.2671L3.19683 46.3169C5.06471 49.3459 7.54871 51.6802 10.6395 53.3015L11.5686 51.5305ZM4.90549 45.2775C3.28462 42.576 2.456 39.3758 2.456 35.64H0.456C0.456 39.6802 1.35538 43.248 3.19051 46.3065L4.90549 45.2775ZM2.456 35.64C2.456 31.9042 3.28462 28.704 4.90549 26.0025L3.19051 24.9735C1.35538 28.032 0.456 31.5998 0.456 35.64H2.456ZM4.89917 26.0129C6.5833 23.2819 8.80329 21.2002 11.5686 19.7495L10.6395 17.9785C7.54871 19.5998 5.06471 21.9341 3.19683 24.9631L4.89917 26.0129ZM11.5686 19.7495C14.3467 18.2922 17.3783 17.56 20.68 17.56V15.56C17.0697 15.56 13.7173 16.3638 10.6395 17.9785L11.5686 19.7495ZM20.68 17.56C23.1405 17.56 25.2013 17.8855 26.8863 18.5063L27.5777 16.6297C25.6147 15.9065 23.3075 15.56 20.68 15.56V17.56ZM26.9158 18.5167C28.7142 19.1161 30.3675 19.8977 31.8791 20.8597L32.9529 19.1723C31.2965 18.1183 29.4938 17.2679 27.5482 16.6193L26.9158 18.5167ZM31.871 20.8544C32.5757 21.3125 32.856 21.8511 32.856 22.536H34.856C34.856 21.1089 34.1763 19.9675 32.961 19.1776L31.871 20.8544ZM32.856 22.536C32.856 22.9604 32.6952 23.3992 32.2572 23.8737L33.7268 25.2303C34.4408 24.4568 34.856 23.5516 34.856 22.536H32.856ZM32.2548 23.8763C31.8982 24.2654 31.534 24.416 31.12 24.416V26.416C32.146 26.416 33.0298 25.9907 33.7292 25.2277L32.2548 23.8763ZM31.12 24.416C30.7814 24.416 30.4166 24.3253 30.0149 24.1061L29.0571 25.8619C29.7114 26.2187 30.4026 26.416 31.12 26.416V24.416ZM29.994 24.095C28.3776 23.2623 26.9472 22.6563 25.712 22.296L25.152 24.216C26.2208 24.5277 27.5264 25.0736 29.078 25.873L29.994 24.095ZM25.7605 22.3115C24.5157 21.8785 23.0032 21.68 21.256 21.68V23.68C22.8688 23.68 24.1403 23.8655 25.1035 24.2005L25.7605 22.3115ZM21.256 21.68C16.9247 21.68 13.4032 22.946 10.8218 25.5801L12.2502 26.9799C14.3728 24.814 17.3313 23.68 21.256 23.68V21.68ZM10.8289 25.5729C8.25774 28.144 7.008 31.5351 7.008 35.64H9.008C9.008 31.9689 10.1103 29.1199 12.2431 26.9871L10.8289 25.5729ZM7.008 35.64C7.008 39.7454 8.25774 43.1556 10.8218 45.7719L12.2502 44.3721C10.1103 42.1884 9.008 39.3106 9.008 35.64H7.008ZM10.8289 45.7791C13.4114 48.3616 16.9305 49.6 21.256 49.6V47.6C17.3255 47.6 14.3646 46.4864 12.2431 44.3649L10.8289 45.7791ZM21.256 49.6C22.994 49.6 24.4925 49.4272 25.7232 49.0527L25.1408 47.1393C24.1635 47.4368 22.878 47.6 21.256 47.6V49.6ZM25.7482 49.0447C26.9657 48.6389 28.3833 48.0147 29.994 47.185L29.078 45.407C27.5207 46.2093 26.2023 46.7851 25.1158 47.1473L25.7482 49.0447ZM30.0149 47.1739C30.4166 46.9547 30.7814 46.864 31.12 46.864V44.864C30.4026 44.864 29.7114 45.0613 29.0571 45.4181L30.0149 47.1739ZM31.12 46.864C31.504 46.864 31.8619 47.0125 32.2286 47.4459L33.7554 46.1541C33.0662 45.3395 32.176 44.864 31.12 44.864V46.864ZM32.2849 47.5071C32.7002 47.9224 32.856 48.3249 32.856 48.744H34.856C34.856 47.7231 34.4358 46.8296 33.6991 46.0929L32.2849 47.5071ZM32.856 48.744C32.856 49.4289 32.5757 49.9675 31.871 50.4256L32.961 52.1024C34.1763 51.3125 34.856 50.1711 34.856 48.744H32.856ZM31.8791 50.4203C30.3612 51.3863 28.7005 52.1944 26.8941 52.8428L27.5699 54.7252C29.5075 54.0296 31.3028 53.1577 32.9529 52.1077L31.8791 50.4203ZM26.9083 52.8378C25.2158 53.4169 23.147 53.72 20.68 53.72V55.72C23.301 55.72 25.6002 55.3991 27.5557 54.7302L26.9083 52.8378ZM43.0146 53.424L43.7217 52.7169L43.0146 53.424ZM43.0146 2.088L43.7217 2.7951L43.7348 2.78202L43.7474 2.76845L43.0146 2.088ZM47.6226 2.088L46.8898 2.76845L46.915 2.79559L46.9422 2.82079L47.6226 2.088ZM48.6306 23.184H47.6306V25.7798L49.3722 23.8549L48.6306 23.184ZM68.8626 18.432L68.3176 19.2705L68.3271 19.2765L68.8626 18.432ZM73.3266 23.544L72.4204 23.9669L72.4243 23.9751L72.4282 23.9832L73.3266 23.544ZM73.9026 53.424L73.2222 52.6912L73.2086 52.7038L73.1955 52.7169L73.9026 53.424ZM69.2946 53.424L68.5875 54.1311L69.2946 53.424ZM53.9586 24.48L53.4136 23.6415L53.4039 23.6479L53.9586 24.48ZM48.6306 29.52L47.848 28.8975L47.6306 29.1708V29.52H48.6306ZM47.6226 53.424L46.9422 52.6912L46.9286 52.7038L46.9155 52.7169L47.6226 53.424ZM45.3186 53.36C44.6619 53.36 44.1513 53.1465 43.7217 52.7169L42.3075 54.1311C43.126 54.9495 44.1513 55.36 45.3186 55.36V53.36ZM43.7217 52.7169C43.2922 52.2873 43.0786 51.7767 43.0786 51.12H41.0786C41.0786 52.2873 41.4891 53.3127 42.3075 54.1311L43.7217 52.7169ZM43.0786 51.12V4.392H41.0786V51.12H43.0786ZM43.0786 4.392C43.0786 3.7353 43.2922 3.22467 43.7217 2.7951L42.3075 1.38089C41.4891 2.19933 41.0786 3.2247 41.0786 4.392H43.0786ZM43.7474 2.76845C44.1834 2.29893 44.6864 2.08 45.3186 2.08V0.079999C44.1268 0.079999 43.0939 0.533063 42.2818 1.40755L43.7474 2.76845ZM45.3186 2.08C45.9508 2.08 46.4539 2.29893 46.8898 2.76845L48.3554 1.40755C47.5434 0.533063 46.5104 0.079999 45.3186 0.079999V2.08ZM46.9422 2.82079C47.4117 3.25677 47.6306 3.75981 47.6306 4.392H49.6306C49.6306 3.20019 49.1776 2.16723 48.3031 1.35521L46.9422 2.82079ZM47.6306 4.392V23.184H49.6306V4.392H47.6306ZM49.3722 23.8549C51.1332 21.9085 53.0195 20.371 55.0286 19.2295L54.0406 17.4905C51.8258 18.749 49.7761 20.4275 47.8891 22.5131L49.3722 23.8549ZM55.0286 19.2295C56.9643 18.1297 59.2836 17.56 62.0226 17.56V15.56C59.0017 15.56 56.329 16.1903 54.0406 17.4905L55.0286 19.2295ZM62.0226 17.56C64.4995 17.56 66.5835 18.1433 68.3176 19.2704L69.4076 17.5936C67.3017 16.2247 64.8258 15.56 62.0226 15.56V17.56ZM68.3271 19.2765C70.13 20.4198 71.4912 21.9757 72.4204 23.9669L74.2328 23.1211C73.146 20.7923 71.5313 18.9402 69.3982 17.5875L68.3271 19.2765ZM72.4282 23.9832C73.4123 25.996 73.9106 28.2201 73.9106 30.672H75.9106C75.9106 27.9399 75.353 25.412 74.225 23.1048L72.4282 23.9832ZM73.9106 30.672V51.12H75.9106V30.672H73.9106ZM73.9106 51.12C73.9106 51.7522 73.6917 52.2552 73.2222 52.6912L74.5831 54.1568C75.4576 53.3448 75.9106 52.3118 75.9106 51.12H73.9106ZM73.1955 52.7169C72.766 53.1465 72.2553 53.36 71.5986 53.36V55.36C72.7659 55.36 73.7913 54.9495 74.6097 54.1311L73.1955 52.7169ZM71.5986 53.36C70.9419 53.36 70.4313 53.1465 70.0017 52.7169L68.5875 54.1311C69.406 54.9495 70.4313 55.36 71.5986 55.36V53.36ZM70.0017 52.7169C69.5722 52.2873 69.3586 51.7767 69.3586 51.12H67.3586C67.3586 52.2873 67.7691 53.3127 68.5875 54.1311L70.0017 52.7169ZM69.3586 51.12V31.392H67.3586V51.12H69.3586ZM69.3586 31.392C69.3586 28.334 68.6715 25.8537 67.1213 24.1344C65.5533 22.3953 63.261 21.608 60.4386 21.608V23.608C62.8962 23.608 64.5639 24.2847 65.6359 25.4736C66.7257 26.6823 67.3586 28.594 67.3586 31.392H69.3586ZM60.4386 21.608C57.8549 21.608 55.5039 22.2829 53.4136 23.6416L54.5036 25.3184C56.2534 24.1811 58.2223 23.608 60.4386 23.608V21.608ZM53.4039 23.6479C51.4303 24.9637 49.5802 26.7199 47.848 28.8975L49.4132 30.1425C51.0411 28.0961 52.7429 26.4923 54.5133 25.312L53.4039 23.6479ZM47.6306 29.52V51.12H49.6306V29.52H47.6306ZM47.6306 51.12C47.6306 51.7522 47.4117 52.2552 46.9422 52.6912L48.3031 54.1568C49.1776 53.3448 49.6306 52.3118 49.6306 51.12H47.6306ZM46.9155 52.7169C46.486 53.1465 45.9753 53.36 45.3186 53.36V55.36C46.4859 55.36 47.5113 54.9495 48.3297 54.1311L46.9155 52.7169ZM86.8896 53.424L87.5967 52.7169L86.8896 53.424ZM86.8896 17.928L87.5967 18.6351L87.6098 18.622L87.6224 18.6084L86.8896 17.928ZM91.4976 53.424L90.8172 52.6912L90.8036 52.7038L90.7905 52.7169L91.4976 53.424ZM79.3296 11.088L80.0367 10.3809V10.3809L79.3296 11.088ZM79.3296 7.992L79.994 8.7394L80.038 8.70033L80.077 8.65636L79.3296 7.992ZM99.2016 7.992L98.4542 8.65636L98.4933 8.70033L98.5373 8.7394L99.2016 7.992ZM99.2016 11.088L98.4945 10.3809L98.4945 10.3809L99.2016 11.088ZM89.1936 53.36C88.5369 53.36 88.0263 53.1465 87.5967 52.7169L86.1825 54.1311C87.001 54.9495 88.0263 55.36 89.1936 55.36V53.36ZM87.5967 52.7169C87.1672 52.2873 86.9536 51.7767 86.9536 51.12H84.9536C84.9536 52.2873 85.3641 53.3127 86.1825 54.1311L87.5967 52.7169ZM86.9536 51.12V20.232H84.9536V51.12H86.9536ZM86.9536 20.232C86.9536 19.5753 87.1672 19.0647 87.5967 18.6351L86.1825 17.2209C85.3641 18.0393 84.9536 19.0647 84.9536 20.232H86.9536ZM87.6224 18.6084C88.0584 18.1389 88.5614 17.92 89.1936 17.92V15.92C88.0018 15.92 86.9689 16.3731 86.1568 17.2475L87.6224 18.6084ZM89.1936 17.92C89.9141 17.92 90.4435 18.1441 90.8625 18.5631L92.2767 17.1489C91.4478 16.3199 90.3932 15.92 89.1936 15.92V17.92ZM90.8625 18.5631C91.2816 18.9822 91.5056 19.5115 91.5056 20.232H93.5056C93.5056 19.0325 93.1057 17.9778 92.2767 17.1489L90.8625 18.5631ZM91.5056 20.232V51.12H93.5056V20.232H91.5056ZM91.5056 51.12C91.5056 51.7522 91.2867 52.2552 90.8172 52.6912L92.1781 54.1568C93.0526 53.3448 93.5056 52.3118 93.5056 51.12H91.5056ZM90.7905 52.7169C90.361 53.1465 89.8503 53.36 89.1936 53.36V55.36C90.3609 55.36 91.3863 54.9495 92.2047 54.1311L90.7905 52.7169ZM80.8416 10.664C80.44 10.664 80.2049 10.5491 80.0367 10.3809L78.6225 11.7951C79.2223 12.3949 79.9953 12.664 80.8416 12.664V10.664ZM80.0367 10.3809C79.7967 10.1409 79.6816 9.86914 79.6816 9.504H77.6816C77.6816 10.3869 77.9985 11.1711 78.6225 11.7951L80.0367 10.3809ZM79.6816 9.504C79.6816 9.14004 79.7939 8.91727 79.994 8.7394L78.6653 7.24459C78.0014 7.83472 77.6816 8.61996 77.6816 9.504H79.6816ZM80.077 8.65636C80.2549 8.45627 80.4777 8.344 80.8416 8.344V6.344C79.9576 6.344 79.1724 6.66373 78.5822 7.32763L80.077 8.65636ZM80.8416 8.344H97.6896V6.344H80.8416V8.344ZM97.6896 8.344C98.0536 8.344 98.2764 8.45627 98.4542 8.65636L99.949 7.32763C99.3589 6.66373 98.5737 6.344 97.6896 6.344V8.344ZM98.5373 8.7394C98.7374 8.91727 98.8496 9.14004 98.8496 9.504H100.85C100.85 8.61996 100.53 7.83472 99.866 7.24459L98.5373 8.7394ZM98.8496 9.504C98.8496 9.86914 98.7345 10.1409 98.4945 10.3809L99.9087 11.7951C100.533 11.1711 100.85 10.3869 100.85 9.504H98.8496ZM98.4945 10.3809C98.3263 10.5491 98.0913 10.664 97.6896 10.664V12.664C98.536 12.664 99.3089 12.3949 99.9087 11.7951L98.4945 10.3809ZM97.6896 10.664H80.8416V12.664H97.6896V10.664Z" fill="#56C461"/>
</svg>
